<svg xmlns="http://www.w3.org/2000/svg" fill="none" viewBox="0 0 36 36">
  <path d="M35.216 18.367c0-1.477-.12-2.556-.38-3.674H17.968v6.668h9.902c-.2 1.657-1.277 4.153-3.673 5.83l-.034.223 5.334 4.132.37.037c3.394-3.135 5.35-7.746 5.35-13.216" fill="#4285F4"/>
  <path d="M17.967 35.936c4.852 0 8.924-1.598 11.899-4.352l-5.67-4.393c-1.517 1.058-3.554 1.797-6.229 1.797-4.751 0-8.784-3.134-10.221-7.466l-.21.018-5.547 4.292-.073.201c2.955 5.87 9.024 9.903 16.051 9.903z" fill="#34A853"/>
  <path d="M7.746 21.52a11.062 11.062 0 01-.599-3.553c0-1.238.22-2.435.579-3.553l-.01-.238L2.1 9.814l-.184.088A17.984 17.984 0 000 17.967c0 2.895.699 5.63 1.916 8.066l5.83-4.512" fill="#FBBC05"/>
  <path d="M17.967 6.947c3.374 0 5.65 1.458 6.948 2.676l5.07-4.952C26.871 1.777 22.82 0 17.967 0 10.94 0 4.871 4.033 1.917 9.902l5.809 4.512c1.457-4.332 5.49-7.467 10.241-7.467" fill="#EB4335"/>
</svg>
